<svg version="1.1" xmlns="http://www.w3.org/2000/svg" xmlns:xlink="http://www.w3.org/1999/xlink" width="69.35353" height="79.71268" viewBox="0,0,69.35353,79.71268"><defs><linearGradient x1="240" y1="136.86834" x2="240" y2="218.85633" gradientUnits="userSpaceOnUse" id="color-1"><stop offset="0" stop-color="#ff66c2"/><stop offset="1" stop-color="#ff6666"/></linearGradient><linearGradient x1="213.6402" y1="159.77777" x2="213.6402" y2="168.02777" gradientUnits="userSpaceOnUse" id="color-2"><stop offset="0" stop-color="#ffffff"/><stop offset="1" stop-color="#d0d0d0"/></linearGradient><linearGradient x1="265.7902" y1="159.72777" x2="265.7902" y2="167.97777" gradientUnits="userSpaceOnUse" id="color-3"><stop offset="0" stop-color="#ffffff"/><stop offset="1" stop-color="#d0d0d0"/></linearGradient></defs><g transform="translate(-205.32323,-140.14366)"><g data-paper-data="{&quot;isPaintingLayer&quot;:true}" fill-rule="nonzero" stroke-width="2" stroke-linejoin="miter" stroke-miterlimit="10" stroke-dasharray="" stroke-dashoffset="0" style="mix-blend-mode: normal"><path d="M209.88157,206.60581c-4.68,-10.69249 -4.80847,-36.71895 0,-59.57344c4.80847,-22.85449 12.48871,27.39105 15.21809,38.89882c1.18137,4.98097 2.62758,14.85118 3.81106,14.85118c2.74123,0 4.16424,-24.48088 9.0824,-30.87885c4.57722,-5.95444 6.24399,33.08643 11.55101,28.58135c1.58882,-1.34874 2.83545,-5.81565 3.97178,-11.79817c1.85391,-9.76037 11.12019,-61.2132 15.60755,-39.65432c1.16049,5.57543 9.63801,38.41597 0,59.57344c-9.63801,21.15748 -54.5619,10.69249 -59.2419,0z" fill="url(#color-1)" stroke="#000000" stroke-linecap="butt"/><path d="M209.5152,163.90277c0,-2.27818 1.84682,-4.125 4.125,-4.125c2.27818,0 4.125,1.84682 4.125,4.125c0,2.27818 -1.84682,4.125 -4.125,4.125c-2.27818,0 -4.125,-1.84682 -4.125,-4.125z" fill="#000000" stroke="url(#color-2)" stroke-linecap="butt"/><path d="M265.7652,203.27777c0,0 -16.01574,7.25 -24.79661,7.25c-8.6333,0 -27.45339,-7.25 -27.45339,-7.25" fill="none" stroke="#000000" stroke-linecap="round"/><path d="M261.6652,163.85277c0,-2.27818 1.84682,-4.125 4.125,-4.125c2.27818,0 4.125,1.84682 4.125,4.125c0,2.27818 -1.84682,4.125 -4.125,4.125c-2.27818,0 -4.125,-1.84682 -4.125,-4.125z" fill="#000000" stroke="url(#color-3)" stroke-linecap="butt"/></g></g></svg>