<svg version="1.1" xmlns="http://www.w3.org/2000/svg" xmlns:xlink="http://www.w3.org/1999/xlink" width="31" height="66" viewBox="0,0,31,66"><defs><linearGradient x1="240.14809" y1="165.5" x2="240.14809" y2="229.5" gradientUnits="userSpaceOnUse" id="color-1"><stop offset="0" stop-color="#cef8ff"/><stop offset="1" stop-color="#a599bd"/></linearGradient><linearGradient x1="234.5" y1="169.875" x2="234.5" y2="178.125" gradientUnits="userSpaceOnUse" id="color-2"><stop offset="0" stop-color="#ffffff"/><stop offset="1" stop-color="#d0d0d0"/></linearGradient><linearGradient x1="245.9" y1="170.075" x2="245.9" y2="178.325" gradientUnits="userSpaceOnUse" id="color-3"><stop offset="0" stop-color="#ffffff"/><stop offset="1" stop-color="#d0d0d0"/></linearGradient></defs><g transform="translate(-224.64809,-164.5)"><g data-paper-data="{&quot;isPaintingLayer&quot;:true}" fill-rule="nonzero" stroke-width="2" stroke-linejoin="miter" stroke-miterlimit="10" stroke-dasharray="" stroke-dashoffset="0" style="mix-blend-mode: normal"><path d="M225.64809,194.5v-29h29v29c0,0 -1.69995,33.08595 -5.22673,32.9275c-2.95152,-0.1326 -7.48215,-34.03561 -10.49395,-29.55807c-4.90114,7.28634 -7.30257,31.63057 -9.51067,31.63057c-2.65415,0 -3.76864,-35 -3.76864,-35z" fill="url(#color-1)" stroke="#000000" stroke-linecap="butt"/><path d="M230.375,174c0,-2.27818 1.84682,-4.125 4.125,-4.125c2.27818,0 4.125,1.84682 4.125,4.125c0,2.27818 -1.84682,4.125 -4.125,4.125c-2.27818,0 -4.125,-1.84682 -4.125,-4.125z" fill="#000000" stroke="url(#color-2)" stroke-linecap="butt"/><path d="M247.125,184.625c0,0 -4.52119,1.75 -7,1.75c-2.43715,0 -7.75,-1.75 -7.75,-1.75" fill="none" stroke="#000000" stroke-linecap="round"/><path d="M241.775,174.2c0,-2.27818 1.84682,-4.125 4.125,-4.125c2.27818,0 4.125,1.84682 4.125,4.125c0,2.27818 -1.84682,4.125 -4.125,4.125c-2.27818,0 -4.125,-1.84682 -4.125,-4.125z" fill="#000000" stroke="url(#color-3)" stroke-linecap="butt"/></g></g></svg>