<svg version="1.1" xmlns="http://www.w3.org/2000/svg" xmlns:xlink="http://www.w3.org/1999/xlink" width="67.65518" height="120.12348" viewBox="0,0,67.65518,120.12348"><g transform="translate(-199.39394,-139.5)"><g data-paper-data="{&quot;isPaintingLayer&quot;:true}" fill-rule="nonzero" stroke="none" stroke-width="0.5" stroke-linecap="butt" stroke-linejoin="miter" stroke-miterlimit="10" stroke-dasharray="" stroke-dashoffset="0" style="mix-blend-mode: normal"><path d="M266.73607,173.11804c-1.11804,2.23607 -3.35411,1.11804 -3.35411,1.11804l-2.64973,-1.46831c-3.50457,-3.53776 -8.08226,-5.63461 -11.87024,-8.87913c-3.71096,-3.17855 -6.90583,-6.87815 -9.95373,-10.63654c0.02087,0.11572 0.04076,0.23154 0.05945,0.34745c0.31845,1.97448 -0.3406,4.02921 0,6c1.09385,6.32941 2.97497,12.64451 4,19c0.51626,3.20094 0.03228,7.17435 0.03228,10.40045c0,3.88944 0,7.77889 0,11.66833c0.21672,1.01831 0.01053,2.11425 0,3.17022c0,0.05381 0,0.10764 0,0.16145c0.0014,0.13259 0.00139,0.26559 0,0.39898c0,0.20034 0,0.40068 0,0.60102c0,0 0,0.13999 -0.03313,0.35372c-0.45226,7.72858 -5.35446,16.44157 -12.36849,19.89207c-3.33159,1.63895 -6.53896,1.25421 -10.09838,1.25421c-7.0281,0 -15.68868,-0.78452 -18.39273,-8.77554c-1.41145,-4.17114 0.40124,-9.95485 0.91146,-14.02992c0.43714,-3.49134 -0.8959,-5.01376 1.49451,-8.21202c0.83263,-1.11401 2.32241,-1.53881 3.40179,-2.41587c0.8167,-0.6636 1.357,-1.67113 2.27064,-2.19327c2.47692,-1.41553 5.43395,-1.58854 8.3625,-1.52535c0.73587,-0.84803 1.95183,-0.84803 1.95183,-0.84803h1c4.47527,0.04248 6.26172,1.31702 10.09838,3.25421c2.27075,1.14654 4.48507,1.76002 6.40162,2.75169c0,-1.8353 0,-3.6706 0,-5.5059c0,-2.90847 0.53281,-6.70329 0.03228,-9.59955c-1.09617,-6.34283 -2.97739,-12.65949 -4,-19c-0.31845,-1.97448 0.3406,-4.02921 0,-6c-0.34529,-1.99797 -1,-3.97241 -1,-6c-0.33334,-1 -0.66666,-2 -1,-3l0.14108,-0.40045h-0.17335v-3v0c0,-1.38071 1.11929,-2.5 2.5,-2.5c1.1246,0 2.07576,0.74256 2.38994,1.76412l0.97233,2.917c4.43947,5.59095 8.79789,11.23126 14.27573,15.93025c3.89088,3.33766 8.48364,5.50349 12.12976,9.12087l1.35027,0.53169c0,0 2.23607,1.11803 1.11803,3.35411zM238,205c0,-1.19366 0,-2.38732 0,-3.58097c-1.44386,-3.81063 -5.49924,-3.63742 -8.59838,-5.17324c-2.00815,-0.99516 -3.03842,-1.78166 -4.32547,-2.25371c-0.71215,0.50793 -1.57615,0.50793 -1.57615,0.50793c-2.90795,0 -8.0963,-1.04668 -10.68567,0.62662c-0.70019,0.45247 -1.07315,1.29256 -1.72936,1.80673c-0.79844,0.62562 -1.92002,0.82983 -2.59821,1.58413c-0.88907,0.98884 -0.4731,5.52839 -0.50549,5.78798c-0.4165,3.33767 -2.20715,8.52452 -1.08854,11.97008c1.04702,3.22503 5.03522,4.75934 8.00772,5.25674c1.84095,0.30805 3.733,-0.03228 5.59955,-0.03228c2.63314,0 5.45932,0.50473 7.90162,-0.74579c4.36053,-2.23269 7.23325,-7.09151 8.72667,-11.54478c0.32009,-0.95448 0.72017,-2.22948 0.97126,-3.53398c-0.09955,-0.38394 -0.09955,-0.67545 -0.09955,-0.67545z" fill="#00ffa9"/><path d="M211,204c0,-1.38071 1.11929,-2.5 2.5,-2.5c1.38071,0 2.5,1.11929 2.5,2.5c0,1.38071 -1.11929,2.5 -2.5,2.5c-1.38071,0 -2.5,-1.11929 -2.5,-2.5z" fill="#000000"/><path d="M228,204c0,-1.38071 1.11929,-2.5 2.5,-2.5c1.38071,0 2.5,1.11929 2.5,2.5c0,1.38071 -1.11929,2.5 -2.5,2.5c-1.38071,0 -2.5,-1.11929 -2.5,-2.5z" fill="#000000"/><path d="M230,219c0,2.5 -2.5,2.5 -2.5,2.5h-1c-3.7164,0 -8.81515,0.87798 -12.40045,-0.03228c-1.62954,-0.41371 -3.58671,-0.68573 -4.62765,-2.00595c-0.92598,-1.17441 -0.31459,-2.97451 -0.47189,-4.46177c0,0 0,-2.5 2.5,-2.5c2.5,0 2.5,2.5 2.5,2.5c-0.1573,0.51274 -0.74362,1.07583 -0.47189,1.53823c0.23177,0.3944 0.91491,-0.00155 1.37235,-0.00595c0.86654,-0.00834 1.73298,-0.02728 2.59955,-0.03228c2.99973,-0.01729 6.00022,0 9,0h1c0,0 2.5,0 2.5,2.5z" fill="#000000"/><path d="M199.42851,257.4847c-0.35355,-2.47487 2.12132,-2.82843 2.12132,-2.82843l2.5474,-0.34211c1.89592,-0.82906 3.81738,-1.60219 5.76005,-2.31485c0.58779,-0.21563 1.47196,-0.08006 1.76907,-0.63117c0.32456,-0.60204 -0.28977,-1.3416 -0.33772,-2.02387c-0.12667,-1.80214 -0.14771,-3.6153 -0.38772,-5.40587c-0.78702,-5.87164 -0.38134,-11.78126 -1.2265,-17.60123c0,0 -0.35355,-2.47487 2.12132,-2.82843c2.47487,-0.35355 2.82843,2.12132 2.82843,2.12132c0.49776,3.53599 0.24559,6.92729 0.43186,10.47492c0.17985,3.42553 0.98369,6.78387 1.22632,10.19321c0.08414,1.18233 -0.0298,7.0766 -0.33144,7.57958c-1.64659,2.74575 -7.71193,4.07457 -10.50367,5.25069l-3.1903,0.47756c0,0 -2.47487,0.35355 -2.82843,-2.12132z" fill="#000000"/><path d="M237.1001,258.22131c-1.5,2 -3.5,0.5 -3.5,0.5l-1.25738,-0.99344c-2.99939,-1.51705 -6.53794,-3.35974 -7.46757,-7.01092c-0.06085,-0.23898 0.7404,-6.88829 0.76156,-7.24865c0.38235,-6.50979 1.56886,-13.09058 3.37105,-19.40101c0,0 0.6868,-2.40381 3.09061,-1.71701c2.40381,0.6868 1.71701,3.09061 1.71701,3.09061c-1.70226,5.95526 -2.8248,12.16731 -3.18632,18.30391c-0.11628,1.97372 -1.22459,3.91962 -0.87778,5.86611c0.31008,1.74037 3.60079,3.04002 4.82751,3.64482l2.02131,1.46558c0,0 2,1.5 0.5,3.5z" fill="#000000"/></g></g></svg>