<svg version="1.1" xmlns="http://www.w3.org/2000/svg" xmlns:xlink="http://www.w3.org/1999/xlink" width="67.45015" height="111.51692" viewBox="0,0,67.45015,111.51692"><g transform="translate(-199.59896,-148.51639)"><g data-paper-data="{&quot;isPaintingLayer&quot;:true}" fill-rule="nonzero" stroke="none" stroke-width="0.5" stroke-linecap="butt" stroke-linejoin="miter" stroke-miterlimit="10" stroke-dasharray="" stroke-dashoffset="0" style="mix-blend-mode: normal"><path d="M266.73607,182.13443c-1.11804,2.23607 -3.35411,1.11804 -3.35411,1.11804l-2.64973,-1.46831c-3.50457,-3.53776 -8.08226,-5.63461 -11.87024,-8.87913c-3.71096,-3.17855 -6.90583,-6.87815 -9.95373,-10.63654c0.02087,0.11572 0.04076,0.23154 0.05945,0.34745c0.31845,1.97448 -0.3406,4.02921 0,6c1.09385,6.32941 2.97497,12.64451 4,19c0.51626,3.20094 0.03228,7.17435 0.03228,10.40045c0,3.88944 0,7.77889 0,11.66833c0.21672,1.01831 0.01053,2.11425 0,3.17022c0,0.05381 0,0.10764 0,0.16145c0.0014,0.13259 0.00139,0.26559 0,0.39898c0,0.20034 0,0.40068 0,0.60102c0,0 0,0.13999 -0.03313,0.35372c-0.45226,7.72858 -5.35446,16.44157 -12.36849,19.89207c-3.33159,1.63895 -6.53896,1.25421 -10.09838,1.25421c-7.0281,0 -15.68868,-0.78452 -18.39273,-8.77554c-1.41145,-4.17114 0.40124,-9.95485 0.91146,-14.02992c0.43714,-3.49134 -0.8959,-5.01376 1.49451,-8.21202c0.83263,-1.11401 2.32241,-1.53881 3.40179,-2.41587c0.8167,-0.6636 1.357,-1.67113 2.27064,-2.19327c2.47692,-1.41553 5.43395,-1.58854 8.3625,-1.52535c0.73587,-0.84803 1.95183,-0.84803 1.95183,-0.84803h1c4.47527,0.04248 6.26172,1.31702 10.09838,3.25421c2.27075,1.14654 4.48507,1.76002 6.40162,2.75169c0,-1.8353 0,-3.6706 0,-5.5059c0,-2.90847 0.53281,-6.70329 0.03228,-9.59955c-1.09617,-6.34283 -2.97739,-12.65949 -4,-19c-0.31845,-1.97448 0.3406,-4.02921 0,-6c-0.34529,-1.99797 -1,-3.97241 -1,-6c-0.33334,-1 -0.66666,-2 -1,-3l0.14108,-0.40045h-0.17335v-3v0c0,-1.38071 1.11929,-2.5 2.5,-2.5c1.1246,0 2.07576,0.74256 2.38994,1.76412l0.97233,2.917c4.43947,5.59095 8.79789,11.23126 14.27573,15.93025c3.89088,3.33766 8.48364,5.50349 12.12976,9.12087l1.35027,0.53169c0,0 2.23607,1.11803 1.11803,3.35411zM238,214.01639c0,-1.19366 0,-2.38732 0,-3.58097c-1.44386,-3.81063 -5.49924,-3.63742 -8.59838,-5.17324c-2.00815,-0.99516 -3.03842,-1.78166 -4.32547,-2.25371c-0.71215,0.50793 -1.57615,0.50793 -1.57615,0.50793c-2.90795,0 -8.0963,-1.04668 -10.68567,0.62662c-0.70019,0.45247 -1.07315,1.29256 -1.72936,1.80673c-0.79844,0.62562 -1.92002,0.82983 -2.59821,1.58413c-0.88907,0.98884 -0.4731,5.52839 -0.50549,5.78798c-0.4165,3.33767 -2.20715,8.52452 -1.08854,11.97008c1.04702,3.22503 5.03522,4.75934 8.00772,5.25674c1.84095,0.30805 3.733,-0.03228 5.59955,-0.03228c2.63314,0 5.45932,0.50473 7.90162,-0.74579c4.36053,-2.23269 7.23325,-7.09151 8.72667,-11.54478c0.32009,-0.95448 0.72017,-2.22948 0.97126,-3.53398c-0.09955,-0.38394 -0.09955,-0.67545 -0.09955,-0.67545z" fill="#00ffa9"/><path d="M211,213.01639c0,-1.38071 1.11929,-2.5 2.5,-2.5c1.38071,0 2.5,1.11929 2.5,2.5c0,1.38071 -1.11929,2.5 -2.5,2.5c-1.38071,0 -2.5,-1.11929 -2.5,-2.5z" fill="#000000"/><path d="M228,213.01639c0,-1.38071 1.11929,-2.5 2.5,-2.5c1.38071,0 2.5,1.11929 2.5,2.5c0,1.38071 -1.11929,2.5 -2.5,2.5c-1.38071,0 -2.5,-1.11929 -2.5,-2.5z" fill="#000000"/><path d="M230,228.01639c0,2.5 -2.5,2.5 -2.5,2.5h-1c-3.7164,0 -8.81515,0.87798 -12.40045,-0.03228c-1.62954,-0.41371 -3.58671,-0.68573 -4.62765,-2.00595c-0.92598,-1.17441 -0.31459,-2.97451 -0.47189,-4.46177c0,0 0,-2.5 2.5,-2.5c2.5,0 2.5,2.5 2.5,2.5c-0.1573,0.51274 -0.74362,1.07583 -0.47189,1.53823c0.23177,0.3944 0.91491,-0.00155 1.37235,-0.00595c0.86654,-0.00834 1.73298,-0.02728 2.59955,-0.03228c2.99973,-0.01729 6.00022,0 9,0h1c0,0 2.5,0 2.5,2.5z" fill="#000000"/><path d="M202.12633,256.60984c-1.11803,-2.23607 1.11803,-3.3541 1.11803,-3.3541l1.2509,-0.57758c0.48001,-0.13339 1.55801,-0.51892 2.73974,-0.80748c-1.34813,-0.20129 -2.71987,-0.50252 -3.7771,-1.21946c-4.86265,-3.29748 -5.10644,-12.46496 -0.86328,-16.59931c2.47915,-2.41558 6.45697,-2.30572 9.61093,-2.75629c0,0 2.47487,-0.35355 2.82843,2.12132c0.35355,2.47487 -2.12132,2.82843 -2.12132,2.82843c-1.78046,0.25435 -3.59626,0.31433 -5.34584,0.73108c-2.79274,0.66523 -3.61217,6.05069 -2.60771,8.38093c1.32638,3.07707 7.22366,0.90399 9.238,3.32776c1.1839,1.42453 2.54417,3.45694 1.93897,5.20755c-1.18579,3.43005 -7.58393,2.79978 -10.26722,3.5931l-0.38844,0.24209c0,0 -2.23607,1.11803 -3.3541,-1.11803z" fill="#000000"/><path d="M238.39465,257.89454c-0.35355,2.47487 -2.82843,2.12132 -2.82843,2.12132l-3.08968,-0.45159c-2.24247,-0.74749 -5.53238,-0.1387 -6.75349,-2.16263c-3.09107,-5.12328 4.36563,-10.42473 8.22179,-11.67317c1.35682,-0.43927 3.17375,0.11492 4.18465,-0.89106c0.56639,-0.56363 -0.12694,-3.084 -0.14656,-3.16847c-0.94397,-4.06597 -2.6252,-6.34508 -6.9812,-6.21811c0,0 -2.5,0 -2.5,-2.5c0,-2.5 2.5,-2.5 2.5,-2.5c6.60481,0.12828 10.5523,3.65536 11.87126,10.17533c0.51952,2.56813 0.99396,5.20431 -0.96623,7.48726c-2.34636,2.73272 -5.63387,1.57468 -8.32814,3.33669c-0.62005,0.4055 -1.16237,0.91933 -1.72926,1.39633c-0.50325,0.42345 -0.94956,0.91612 -1.48042,1.30439c-0.07572,0.05538 -0.23254,0.11947 -0.37744,0.17106c1.17011,-0.29767 2.48499,-0.00679 3.63379,0.37615l2.64802,0.36808c0,0 2.47487,0.35355 2.12132,2.82843z" fill="#000000"/></g></g></svg>