<svg version="1.1" xmlns="http://www.w3.org/2000/svg" xmlns:xlink="http://www.w3.org/1999/xlink" width="49.63864" height="48.05412" viewBox="0,0,49.63864,48.05412"><defs><linearGradient x1="239.56336" y1="155.81041" x2="240.03363" y2="203.80811" gradientUnits="userSpaceOnUse" id="color-1"><stop offset="0" stop-color="#66ddff"/><stop offset="1" stop-color="#00b2ce"/></linearGradient><linearGradient x1="240.00703" y1="160.78753" x2="240.37973" y2="198.82624" gradientUnits="userSpaceOnUse" id="color-2"><stop offset="0" stop-color="#ff6666"/><stop offset="1" stop-color="#e466ff"/></linearGradient></defs><g transform="translate(-215.18068,-155.97294)"><g data-paper-data="{&quot;isPaintingLayer&quot;:true}" fill-rule="nonzero" stroke="none" stroke-width="0.5" stroke-linecap="butt" stroke-linejoin="miter" stroke-miterlimit="10" stroke-dasharray="" stroke-dashoffset="0" style="mix-blend-mode: normal"><path d="M219.75964,158.50456c-0.02449,-2.49988 2.47539,-2.52438 2.47539,-2.52438c11.42737,-0.11196 22.56246,1.11233 34.01143,1.00015l0.33331,-0.00326c0,0 1.169,-0.01145 1.91604,0.7807c1.59669,0.5014 1.61481,2.35152 1.61481,2.35152c0.06409,6.54078 1.36783,12.8071 2.48807,19.23342c0.69355,3.97853 0.59065,8.07064 1.13301,12.0892c0.27715,2.05356 1.89103,8.60329 0.58195,10.18653c-1.03138,1.2474 -3.09218,0.97298 -4.67407,1.31557c-4.04544,0.87614 -8.48995,0.43182 -12.60539,0.47215c-9.32588,0.09137 -18.65177,0.18275 -27.97765,0.27412c-0.33834,0.20552 -0.77847,0.34098 -1.351,0.3466c-2.49988,0.02449 -2.52438,-2.47539 -2.52438,-2.47539l-0.00048,-1.60949c0.82329,-8.13349 1.10547,-16.44365 2.44792,-24.50827c0.84096,-5.052 2.21617,-9.7817 2.15063,-14.92926c0,0 -0.0043,-0.43921 0.17479,-0.95123c-0.11791,-0.28767 -0.19031,-0.63332 -0.19438,-1.04868zM246.98522,198.4064c3.92519,-0.03846 8.18543,-0.6586 12.05355,-0.43617c0.48091,0.02765 0.88744,0.80392 1.3191,0.59015c0.3546,-0.17559 -0.74039,-0.4401 -0.86132,-0.81684c-0.3075,-0.95801 -0.23537,-1.99852 -0.3627,-2.99659c-0.05421,-0.42498 -0.66721,-4.91886 -0.71889,-5.32655c-0.38956,-3.07278 -0.19388,-6.16347 -0.74036,-9.20982c-1.09222,-6.08852 -2.26495,-12.06068 -2.51699,-18.22364c-10.21711,0.0237 -20.20175,-0.94977 -30.37907,-1.01121c-0.04649,5.25357 -1.34899,10.08009 -2.21491,15.2614c-1.23258,7.37524 -1.5509,14.96808 -2.23702,22.43046c8.76051,-0.08583 17.99037,-0.17627 26.6586,-0.2612z" fill="url(#color-1)"/><path d="M220.29035,198.70202c0.68613,-7.46239 0.99171,-15.09958 2.22427,-22.47481c0.86592,-5.1813 2.18576,-10.0366 2.23225,-15.29016c10.17731,0.06145 20.22577,1.03529 30.44288,1.01162c0.25204,6.16296 1.4426,12.17458 2.53483,18.26309c0.54649,3.04634 0.34503,6.15921 0.73459,9.23198c0.05168,0.40767 0.65971,4.90921 0.71392,5.33417c0.12733,0.99807 0.05257,2.04166 0.36007,2.99967c0.12093,0.37676 1.2159,0.64126 0.8613,0.81687c-0.43166,0.21377 -0.83882,-0.56185 -1.31971,-0.5895c-3.86813,-0.22243 -8.14722,0.40997 -12.07241,0.44843c-8.66824,0.08493 -17.95151,0.16282 -26.71201,0.24865z" data-paper-data="{&quot;noHover&quot;:false,&quot;origItem&quot;:[&quot;Path&quot;,{&quot;applyMatrix&quot;:true,&quot;segments&quot;:[[[484.56979,466],[-17.33731,0],[7.85075,0]],[[508.6843,465.36391],[-7.73154,-0.52065],[0.96122,0.06473]],[[511.31082,466.57],[-0.86749,0.41905],[0.71259,-0.34422]],[[509.60427,464.91951],[0.23446,0.75584],[-0.5962,-1.92196]],[[508.93761,458.91951],[0.2351,1.99853],[-0.1001,-0.85097]],[[507.60427,448.25285],[0.09538,0.81633],[-0.71888,-6.1529]],[[506.30409,429.8196],[1.03323,6.1031],[-2.06505,-12.19786]],[[501.62744,393.32473],[0.38331,12.33028],[-20.4337,-0.15283]],[[440.89204,390.70713],[20.35244,0.32229],[-0.19592,10.50571]],[[436.16338,421.18506],[1.83327,-10.34515],[-2.60953,14.72561]],[[431.25003,466],[1.51842,-14.91062],[17.52185,0]]],&quot;closed&quot;:true}]}" fill="url(#color-2)"/></g></g></svg>