<svg version="1.1" xmlns="http://www.w3.org/2000/svg" xmlns:xlink="http://www.w3.org/1999/xlink" width="89.22889" height="72.87259" viewBox="0,0,89.22889,72.87259"><defs><linearGradient x1="238.53459" y1="114.27332" x2="237.82444" y2="186.75288" gradientUnits="userSpaceOnUse" id="color-1"><stop offset="0" stop-color="#20b34c"/><stop offset="1" stop-color="#064d00"/></linearGradient><linearGradient x1="238.25" y1="119.23902" x2="237.63323" y2="182.18806" gradientUnits="userSpaceOnUse" id="color-2"><stop offset="0" stop-color="#66ff6b"/><stop offset="1" stop-color="#54d02e"/></linearGradient></defs><g transform="translate(-193.46834,-114.25123)"><g data-paper-data="{&quot;isPaintingLayer&quot;:true}" fill-rule="nonzero" stroke="none" stroke-width="0.5" stroke-linecap="butt" stroke-linejoin="miter" stroke-miterlimit="10" stroke-dasharray="" stroke-dashoffset="0" style="mix-blend-mode: normal"><path d="M233.27666,119.23968c-6.98323,-0.01016 -13.98031,0.12599 -20.94296,0.44004c-3.02588,0.13649 -6.10807,-0.05404 -9.13785,-0.0857c-1.06497,-0.01113 -2.13765,0.09347 -3.19489,-0.03513c-0.45277,-0.05506 -0.90974,-0.78709 -1.27051,-0.50801c-0.31247,0.24174 0.41824,0.67038 0.62736,1.00557c-0.13389,13.666 -0.26779,27.33203 -0.40169,40.99803c-0.04898,4.99949 -0.0702,10.00016 -0.14696,14.99928c-0.03446,2.24425 -1.2136,4.99019 1.12578,4.17789c22.36688,0.21914 44.7339,0.42764 67.10065,0.6596c3.48042,0.32435 4.62474,0.30796 7.96777,1.07729c0.48093,0.11068 0.97982,0.77135 1.39302,0.5015c0.32979,-0.21537 -0.57186,-0.60694 -0.63664,-0.99545c-0.14617,-0.87679 0.01742,-1.77769 0.02613,-2.66654c0.02865,-2.92351 0.06475,-5.71604 0.43508,-8.62258c0.46232,-3.62853 0.17914,-7.20455 0.42615,-10.8415c0.58694,-8.64207 1.48374,-16.91758 0.59411,-25.59473c-0.26769,-2.97063 -0.50228,-5.95387 -0.9004,-8.91106c-0.16157,-1.20003 -0.34213,-2.39755 -0.5351,-3.59292c-0.07122,-0.44116 0.12716,-1.08798 -0.25733,-1.31573c-0.40235,-0.23834 -0.88989,0.32141 -1.35593,0.36011c-3.01797,0.25059 -6.31875,-0.05968 -9.33289,-0.09144c-9.75763,-0.10284 -19.55109,0.47513 -29.33845,0.37924c0,0 -1.62953,-0.01597 -2.24444,-1.33776zM240.81481,115.58483c9.37358,-0.057 18.72882,-0.43898 28.09355,-0.34722c2.04939,0.02008 7.71014,-0.661 9.31023,0.46461c1.27599,0.89761 1.82392,2.57726 2.35695,4.04346c1.43077,3.93564 1.26826,9.36957 1.64294,13.52743c1.34122,13.41401 -0.4662,26.99601 -1.38578,40.38904c-0.17864,2.60165 0.19158,5.26753 -0.07321,7.86141c-0.14867,1.45644 0.39309,3.35142 -0.6889,4.33764c-2.91953,2.66111 -9.91324,0.33839 -13.29173,0.02344c-22.29775,-0.20496 -44.59529,-0.43479 -66.89291,-0.65326c-1.36203,-0.16175 -3.00785,0.36253 -4.08609,-0.48524c-1.24086,-0.97562 -1.64346,-2.75609 -1.99392,-4.29516c-0.78686,-3.45568 0.04363,-8.54646 0.07857,-12.11254c0.15785,-16.11034 0.3157,-32.22067 0.47355,-48.33101c0.22654,-1.44251 -0.35022,-3.29235 0.67961,-4.32752c2.02454,-2.03502 8.20732,-1.08567 10.87372,-1.05954c10.56275,0.1035 21.10757,-0.45989 31.67167,-0.35638l0.99995,0.0098c0,0 1.60751,0.01574 2.23179,1.31104z" data-paper-data="{&quot;index&quot;:null}" fill="url(#color-1)"/><path d="M212.30187,119.64115c6.96264,-0.31406 13.98422,-0.46109 20.96745,-0.45093c0.6149,1.32177 2.24776,1.33736 2.24776,1.33736c9.78736,0.0959 19.6179,-0.46975 29.37553,-0.3669c3.01414,0.03177 6.32014,0.34739 9.33811,0.0968c0.46605,-0.0387 0.95396,-0.59798 1.35632,-0.35964c0.3845,0.22777 0.18688,0.87553 0.2581,1.3167c0.19297,1.19536 0.37555,2.39565 0.5371,3.59568c0.39813,2.95718 0.63716,5.94854 0.90485,8.91918c0.88963,8.67714 -0.00426,16.98335 -0.59121,25.62542c-0.24701,3.63695 0.03195,7.22476 -0.43038,10.85329c-0.37033,2.90654 -0.41085,5.7062 -0.43949,8.62971c-0.00872,0.88885 -0.17367,1.7915 -0.02749,2.66829c0.06477,0.38851 0.96619,0.78037 0.63641,0.99573c-0.4132,0.26985 -0.91242,-0.39041 -1.39336,-0.50109c-3.34305,-0.76933 -4.49087,-0.74918 -7.97129,-1.07353c-22.36676,-0.23198 -44.80798,-0.44579 -67.17486,-0.66494c-2.33938,0.81232 -1.16273,-1.93713 -1.12827,-4.18138c0.07676,-4.99912 0.09162,-10.01415 0.14061,-15.01364c0.1339,-13.666 0.27699,-27.37595 0.41089,-41.04195c-0.20912,-0.33518 -0.93959,-0.76412 -0.62711,-1.00586c0.36076,-0.27908 0.81802,0.45262 1.27078,0.50769c1.05724,0.1286 2.13133,0.02236 3.1963,0.0335c3.02979,0.03166 6.1174,0.21698 9.14327,0.0805z" data-paper-data="{&quot;noHover&quot;:false,&quot;origItem&quot;:[&quot;Path&quot;,{&quot;applyMatrix&quot;:true,&quot;segments&quot;:[[[245.209,126.68431],[6.98299,0.05826],[-0.62783,1.3157]],[[242.95157,128],[0,0],[-9.78783,0]],[[213.61823,127.33334],[9.75817,-0.00724],[-3.01431,0.00223]],[[204.2849,127.33334],[3.01537,0.28014],[-0.46564,-0.04326]],[[202.93256,126.95996],[0.40467,-0.23439],[-0.38671,0.22398]],[[202.66236,128.27311],[0.07554,-0.44045],[-0.20468,1.19342]],[[202.09209,131.86062],[0.1733,-1.19839],[-0.42708,2.95314]],[[201.10442,140.76243],[0.29678,-2.96787],[-0.9746,8.66802]],[[201.44774,166.36175],[-0.50225,-8.6474],[0.21137,3.6392]],[[201.76766,177.20691],[-0.42676,-3.63289],[0.34184,2.91003]],[[202.11823,185.83334],[0,-2.92365],[0,0.88889]],[[202.11823,188.5],[0.15476,-0.87532],[-0.06858,0.38786]],[[201.47186,189.48916],[-0.32765,-0.21858],[0.41054,0.27388]],[[202.86973,189.00134],[-0.482,0.10596],[3.35041,-0.73654]],[[210.84767,188.00216],[-3.48343,0.29023],[22.36795,-0.01281]],[[277.95157,188],[-22.36795,0],[2.33131,0.83518]],[[279.11823,183.83334],[0.01247,2.24448],[-0.02778,-4.99964]],[[279.11823,168.83334],[0,4.99973],[0,-13.66666]],[[279.11823,127.83334],[0,13.66666],[0.2124,-0.33312]],[[279.75541,126.83397],[0.31009,0.24478],[-0.35801,-0.2826]],[[278.47998,127.32951],[0.45329,-0.05063],[-1.05845,0.11823]],[[275.2849,127.33334],[1.06503,-0.0007],[-3.02995,0.00198]],[[266.14665,127.32951],[3.02439,0.16612],[-6.95923,-0.38225]]],&quot;closed&quot;:true}],&quot;index&quot;:null}" fill="url(#color-2)"/><path d="M232.8173,175.38691c0.0245,-2.49988 2.52438,-2.47539 2.52438,-2.47539l0.33332,0.00326c7.56954,0.08429 15.71188,-1.1483 22.93738,-3.32283c3.01187,-0.90643 5.7208,-2.77543 6.78378,-6.01033c1.04992,-3.19511 1.25149,-7.12468 1.65633,-10.46979c0,0 0.30041,-2.48188 2.7823,-2.18147c2.48188,0.30041 2.18147,2.7823 2.18147,2.7823c-0.4412,3.64446 -0.66206,8.03151 -1.8924,11.4965c-3.55611,10.01509 -14.91045,10.55705 -23.7881,11.7832c-3.65451,0.50474 -7.02699,0.95377 -10.70974,0.92218l-0.33332,-0.00326c0,0 -2.49988,-0.0245 -2.47539,-2.52438z" data-paper-data="{&quot;index&quot;:null}" fill="#20b34c"/><path d="M252.76216,130.08014c-1.38065,-0.01354 -2.48892,-1.14373 -2.47539,-2.52438c0.01354,-1.38065 1.14373,-2.48892 2.52438,-2.47539c1.38065,0.01354 2.48892,1.14373 2.47539,2.52438c-0.01354,1.38065 -1.14373,2.48892 -2.52438,2.47539z" data-paper-data="{&quot;index&quot;:null}" fill="#20b34c"/><path d="M210.77071,129.00201c-1.38065,-0.01354 -2.48892,-1.14373 -2.47539,-2.52438c0.01354,-1.38065 1.14373,-2.48892 2.52438,-2.47539c1.38065,0.01354 2.48892,1.14373 2.47539,2.52438c-0.01354,1.38065 -1.14373,2.48892 -2.52438,2.47539z" data-paper-data="{&quot;index&quot;:null}" fill="#20b34c"/></g></g></svg>