<svg version="1.1" xmlns="http://www.w3.org/2000/svg" xmlns:xlink="http://www.w3.org/1999/xlink" width="56.88709" height="80.56324" viewBox="0,0,56.88709,80.56324"><defs><linearGradient x1="241.02942" y1="140.49999" x2="241.02942" y2="196.00256" gradientUnits="userSpaceOnUse" id="color-1"><stop offset="0" stop-color="#00c2ff"/><stop offset="1" stop-color="#009cff"/></linearGradient><linearGradient x1="214.55883" y1="168.25128" x2="267.5" y2="168.25128" gradientUnits="userSpaceOnUse" id="color-2"><stop offset="0" stop-color="#2a48b5"/><stop offset="1" stop-color="#268bd9"/></linearGradient><linearGradient x1="238.38235" y1="193.5718" x2="238.38235" y2="219.5" gradientUnits="userSpaceOnUse" id="color-3"><stop offset="0" stop-color="#006dff"/><stop offset="1" stop-color="#0016ff"/></linearGradient><linearGradient x1="212.5" y1="206.5359" x2="264.26471" y2="206.5359" gradientUnits="userSpaceOnUse" id="color-4"><stop offset="0" stop-color="#ffd500"/><stop offset="1" stop-color="#ff8100"/></linearGradient></defs><g transform="translate(-211.70665,-139.74999)"><g data-paper-data="{&quot;isPaintingLayer&quot;:true}" fill-rule="nonzero" stroke-linejoin="miter" stroke-miterlimit="10" stroke-dasharray="" stroke-dashoffset="0" style="mix-blend-mode: normal"><path d="M216.61765,149.00769l9.41176,-0.81026v-7.69744h7.64706l0.29412,14.58462l18.23529,0.81026l15.29412,40.10769l-33.52941,-0.40513l-13.82353,-2.02564l2.05882,-10.12821l-4.41176,-7.29231l-3.23529,-2.8359l6.47059,-1.62051l2.05882,-8.91282l-4.41176,-0.40513l-0.29412,-10.93846z" fill="url(#color-1)" stroke="url(#color-2)" stroke-width="1.5" stroke-linecap="round"/><path d="M248.97059,195.19231l5.58824,16.20513l9.70588,1.21538v6.88718l-25,-2.02564v-7.29231l-26.17647,-5.67179l-0.58824,-10.93846z" fill="url(#color-3)" stroke="url(#color-4)" stroke-width="1.5" stroke-linecap="round"/><path d="M234.26998,171.53467c0.36156,0.36156 0.23012,0.72313 0.10985,0.91663c0.01135,1.78196 0.08972,3.87909 -1.37962,5.17739c-3.38316,2.98932 -6.781,-3.78966 -7.09752,-6.24643c0,0 -0.09303,-0.74421 0.65118,-0.83723c0.74421,-0.09303 0.83723,0.65118 0.83723,0.65118c0.20907,1.73528 0.92553,3.31313 2.20658,4.53268c0.44214,0.42092 1.74186,1.45333 2.44328,0.74661c1.08016,-1.08833 0.83787,-2.92799 0.83787,-4.29967l0.33049,-0.64115c0,0 0.53033,-0.53033 1.06066,0z" fill="#002658" stroke="none" stroke-width="0.5" stroke-linecap="butt"/><path d="M251.46861,173.38902c0.67082,-0.33541 1.00623,0.33541 1.00623,0.33541l0.41165,1.00036c0,0.58467 -0.00183,1.16934 -0.00562,1.754c-1.02483,4.14551 -5.30216,6.39399 -8.88866,3.12948c-1.90411,-1.73316 -2.90649,-4.27664 -3.44865,-6.71562c0,0 -0.1627,-0.73214 0.56944,-0.89484c0.73214,-0.1627 0.89484,0.56944 0.89484,0.56944c0.47551,2.14042 1.31777,4.3806 2.97916,5.91835c2.66306,2.46488 5.63747,0.83276 6.4051,-2.19009c-0.0043,-0.52356 -0.00562,-1.04715 -0.00562,-1.57073l-0.25329,-0.32954c0,0 -0.33541,-0.67082 0.33541,-1.00623z" fill="#002658" stroke="none" stroke-width="0.5" stroke-linecap="butt"/><path d="M230.12279,189.76063c0.14709,-0.73544 0.88252,-0.58835 0.88252,-0.58835l0.58894,0.11865c1.12123,0.28044 2.19948,0.73403 3.34158,0.86937c4.38309,0.48693 14.7883,3.12039 14.7883,-3.4665c0,0 0,-0.36055 0.24998,-0.58167c-0.12306,0.00066 -0.25145,0.00178 -0.38658,0.00178c0,0 -0.75,0 -0.75,-0.75c0,-0.75 0.75,-0.75 0.75,-0.75c1.34529,0 2.24885,0.03427 3.40828,0.79091l0.33247,0.22165c0,0 0.62404,0.41603 0.20801,1.04006c-0.41603,0.62404 -1.04006,0.20801 -1.04006,0.20801l-0.33247,-0.22165c-0.40702,-0.27914 -0.76302,-0.41551 -1.13091,-0.48139c0.19127,0.22069 0.19127,0.5223 0.19127,0.5223c0,8.12304 -11.01502,5.56171 -16.46416,4.95615c-1.21623,-0.15845 -2.33782,-0.60603 -3.52953,-0.90382l-0.51931,-0.103c0,0 -0.73544,-0.14709 -0.58835,-0.88252z" fill="#002658" stroke="none" stroke-width="0.5" stroke-linecap="butt"/><path d="M234.59898,164.93134c-0.62404,0.41603 -1.04006,-0.20801 -1.04006,-0.20801l-0.01364,-0.12446c-1.7915,-1.34294 -3.86428,1.06418 -4.04851,2.79372c0,0 -0.09303,0.74421 -0.83723,0.65118c-0.74421,-0.09303 -0.65118,-0.83723 -0.65118,-0.83723c0.41144,-2.9719 3.48674,-5.64815 6.36898,-3.85574l0.42966,0.54049c0,0 0.41603,0.62404 -0.20801,1.04006z" fill="#002658" stroke="none" stroke-width="0.5" stroke-linecap="butt"/><path d="M243.31871,165.78776c0.1819,-0.72761 0.90951,-0.54571 0.90951,-0.54571l0.46744,0.11729c2.12518,0.60886 4.13774,1.70538 4.5261,4.05063c0,0 0.10607,0.74246 -0.6364,0.84853c-0.74246,0.10607 -0.84853,-0.6364 -0.84853,-0.6364c-0.18181,-1.69785 -2.00407,-2.40765 -3.45325,-2.82048l-0.41916,-0.10436c0,0 -0.72761,-0.1819 -0.54571,-0.90951z" fill="#002658" stroke="none" stroke-width="0.5" stroke-linecap="butt"/></g></g></svg>