<svg version="1.1" xmlns="http://www.w3.org/2000/svg" xmlns:xlink="http://www.w3.org/1999/xlink" width="66.82176" height="71.0297" viewBox="0,0,66.82176,71.0297"><defs><linearGradient x1="238.38235" y1="193.5718" x2="238.38235" y2="219.5" gradientUnits="userSpaceOnUse" id="color-1"><stop offset="0" stop-color="#006dff"/><stop offset="1" stop-color="#0016ff"/></linearGradient><linearGradient x1="212.5" y1="206.5359" x2="264.26471" y2="206.5359" gradientUnits="userSpaceOnUse" id="color-2"><stop offset="0" stop-color="#ffd500"/><stop offset="1" stop-color="#ff8100"/></linearGradient><linearGradient x1="222.4052" y1="148.9684" x2="231.25759" y2="203.76046" gradientUnits="userSpaceOnUse" id="color-3"><stop offset="0" stop-color="#00c2ff"/><stop offset="1" stop-color="#009cff"/></linearGradient><linearGradient x1="200.69967" y1="180.58636" x2="252.96312" y2="172.14251" gradientUnits="userSpaceOnUse" id="color-4"><stop offset="0" stop-color="#2a48b5"/><stop offset="1" stop-color="#268bd9"/></linearGradient></defs><g transform="translate(-198.19295,-149.28352)"><g data-paper-data="{&quot;isPaintingLayer&quot;:true}" fill-rule="nonzero" stroke-linejoin="miter" stroke-miterlimit="10" stroke-dasharray="" stroke-dashoffset="0" style="mix-blend-mode: normal"><path d="M248.97059,195.19231l5.58824,16.20513l9.70588,1.21538v6.88718l-25,-2.02564v-7.29231l-26.17647,-5.67179l-0.58824,-10.93846z" fill="url(#color-1)" stroke="url(#color-2)" stroke-width="1.5" stroke-linecap="round"/><g><path d="M199.66287,161.26074l9.16204,-2.30102l-1.2277,-7.5989l7.54917,-1.21967l2.61653,14.35101l18.13109,-2.10855l21.49532,37.15492l-33.16481,4.94783l-13.96965,0.20508l0.41706,-10.32693l-5.51837,-6.49531l-3.64619,-2.28358l6.12929,-2.63179l0.61091,-9.1271l-4.4199,0.30371l-2.03499,-10.75152z" fill="url(#color-3)" stroke="url(#color-4)" stroke-width="1.5" stroke-linecap="round"/><path d="M220.68217,180.68389c0.4146,0.29926 0.34251,0.67717 0.25464,0.88738c0.29542,1.75734 0.70727,3.81512 -0.53619,5.33116c-2.86307,3.49065 -7.29863,-2.65961 -8.00294,-5.03445c0,0 -0.21054,-0.71985 0.50931,-0.93037c0.71985,-0.21054 0.93037,0.50931 0.93037,0.50931c0.48316,1.67972 1.44211,3.1231 2.90127,4.12272c0.50361,0.34501 1.95136,1.15691 2.53108,0.34736c0.89275,-1.24668 0.36014,-3.02414 0.14137,-4.37826l0.224,-0.68565c0,0 0.43896,-0.60813 1.04708,-0.16917z" fill="#002658" stroke="none" stroke-width="0.5" stroke-linecap="butt"/><path d="M237.9564,179.77141c0.60874,-0.43811 1.04685,0.17063 1.04685,0.17063l0.56593,0.9219c0.09325,0.57719 0.1847,1.15466 0.27421,1.73244c-0.35052,4.2559 -4.21448,7.15781 -8.27574,4.50712c-2.15617,-1.40728 -3.55139,-3.75832 -4.47561,-6.07961c0,0 -0.27739,-0.69682 0.41943,-0.97421c0.69682,-0.27739 0.97421,0.41943 0.97421,0.41943c0.81081,2.03718 1.99959,4.11434 3.88497,5.36743c3.02211,2.00858 5.69812,-0.07705 5.9738,-3.18364c-0.08775,-0.51617 -0.17256,-1.03285 -0.25607,-1.54973l-0.30261,-0.28492c0,0 -0.43811,-0.60874 0.17063,-1.04685z" fill="#002658" stroke="none" stroke-width="0.5" stroke-linecap="butt"/><path d="M219.49502,199.33799c0.02791,-0.74949 0.77738,-0.72158 0.77738,-0.72158l0.60032,0.0232c1.15161,0.09802 2.2884,0.37383 3.43746,0.32528c4.40464,-0.21838 15.09668,0.72178 14.0461,-5.78079c0,0 -0.05751,-0.35593 0.15401,-0.61409c-0.12138,0.02028 -0.24795,0.04186 -0.38135,0.06341c0,0 -0.7404,0.11962 -0.86002,-0.62078c-0.11962,-0.7404 0.62078,-0.86002 0.62078,-0.86002c1.32807,-0.21457 2.22553,-0.32485 3.4908,0.23718l0.36357,0.16579c0,0 0.68241,0.31117 0.37123,0.99357c-0.31117,0.68241 -0.99357,0.37123 -0.99357,0.37123l-0.36357,-0.16579c-0.44633,-0.21065 -0.81952,-0.28849 -1.19321,-0.29485c0.22402,0.18736 0.27213,0.48511 0.27213,0.48511c1.29558,8.01905 -9.98695,7.24735 -15.46292,7.51866c-1.22593,0.03756 -2.40455,-0.2254 -3.6285,-0.32931l-0.52909,-0.01885c0,0 -0.74949,-0.02791 -0.72158,-0.77738z" fill="#002658" stroke="none" stroke-width="0.5" stroke-linecap="butt"/><path d="M219.95376,174.11262c-0.5497,0.51024 -1.05992,-0.03946 -1.05992,-0.03946l-0.03332,-0.12069c-1.98276,-1.04001 -3.64508,1.66689 -3.5511,3.40367c0,0 0.02686,0.74952 -0.72265,0.77638c-0.74952,0.02686 -0.77638,-0.72265 -0.77638,-0.72265c-0.06783,-2.99948 2.54125,-6.13196 5.67248,-4.8222l0.51037,0.46504c0,0 0.51024,0.5497 -0.03946,1.05992z" fill="#002658" stroke="none" stroke-width="0.5" stroke-linecap="butt"/><path d="M228.69846,173.56732c0.06352,-0.74731 0.81083,-0.68379 0.81083,-0.68379l0.48016,0.04123c2.19509,0.26211 4.35677,1.0236 5.11422,3.27689c0,0 0.22313,0.71604 -0.49292,0.93917c-0.71604,0.22313 -0.93917,-0.49292 -0.93917,-0.49292c-0.45028,-1.64712 -2.36242,-2.05719 -3.8589,-2.2336l-0.43044,-0.03617c0,0 -0.74731,-0.06352 -0.68379,-0.81083z" fill="#002658" stroke="none" stroke-width="0.5" stroke-linecap="butt"/></g></g></g></svg>