<svg version="1.1" xmlns="http://www.w3.org/2000/svg" xmlns:xlink="http://www.w3.org/1999/xlink" width="70.21798" height="66.82955" viewBox="0,0,70.21798,66.82955"><defs><linearGradient x1="238.38235" y1="193.5718" x2="238.38235" y2="219.5" gradientUnits="userSpaceOnUse" id="color-1"><stop offset="0" stop-color="#006dff"/><stop offset="1" stop-color="#0016ff"/></linearGradient><linearGradient x1="212.5" y1="206.5359" x2="264.26471" y2="206.5359" gradientUnits="userSpaceOnUse" id="color-2"><stop offset="0" stop-color="#ffd500"/><stop offset="1" stop-color="#ff8100"/></linearGradient><linearGradient x1="218.02315" y1="152.65793" x2="231.06255" y2="206.60705" gradientUnits="userSpaceOnUse" id="color-3"><stop offset="0" stop-color="#00c2ff"/><stop offset="1" stop-color="#009cff"/></linearGradient><linearGradient x1="198.81314" y1="185.85131" x2="250.27256" y2="173.41368" gradientUnits="userSpaceOnUse" id="color-4"><stop offset="0" stop-color="#2a48b5"/><stop offset="1" stop-color="#268bd9"/></linearGradient></defs><g transform="translate(-194.79673,-153.48368)"><g data-paper-data="{&quot;isPaintingLayer&quot;:true}" fill-rule="nonzero" stroke-linejoin="miter" stroke-miterlimit="10" stroke-dasharray="" stroke-dashoffset="0" style="mix-blend-mode: normal"><path d="M248.97059,195.19231l5.58824,16.20513l9.70588,1.21538v6.88718l-25,-2.02564v-7.29231l-26.17647,-5.67179l-0.58824,-10.93846z" fill="url(#color-1)" stroke="url(#color-2)" stroke-width="1.5" stroke-linecap="round"/><g><path d="M196.29337,166.66264l8.95798,-2.99872l-1.80838,-7.482l7.43303,-1.79655l3.7123,14.10732l17.91527,-3.49649l24.2887,35.39203l-32.68615,7.48338l-13.91252,1.27867l-0.37826,-10.32842l-6.00149,-6.05174l-3.81099,-1.99645l5.90877,-3.09531l-0.09273,-9.14705l-4.38346,0.64268l-2.8557,-10.56321z" fill="url(#color-3)" stroke="url(#color-4)" stroke-width="1.5" stroke-linecap="round"/><path d="M218.74398,184.412c0.43638,0.26649 0.39357,0.64883 0.32212,0.86517c0.42968,1.72942 0.99854,3.74944 -0.12466,5.35661c-2.58618,3.70047 -7.48153,-2.09051 -8.36637,-4.40416c0,0 -0.26527,-0.70153 0.43626,-0.96678c0.70153,-0.26527 0.96678,0.43626 0.96678,0.43626c0.61089,1.63759 1.67799,3.00296 3.2097,3.88742c0.52865,0.30526 2.03454,1.00344 2.5503,0.1517c0.79424,-1.31164 0.12653,-3.04288 -0.19571,-4.37617l0.17061,-0.70084c0,0 0.3909,-0.64008 1.03097,-0.24918z" fill="#002658" stroke="none" stroke-width="0.5" stroke-linecap="butt"/><path d="M235.8969,182.17393c0.57325,-0.48362 1.05687,0.08963 1.05687,0.08963l0.63514,0.87565c0.13736,0.56831 0.27294,1.13704 0.40661,1.70623c-0.02223,4.27025 -3.6516,7.46069 -7.90466,5.13014c-2.258,-1.23732 -3.82987,-3.47411 -4.92985,-5.71746c0,0 -0.33015,-0.67343 0.34328,-1.00358c0.67343,-0.33015 1.00358,0.34328 1.00358,0.34328c0.96506,1.9688 2.31004,3.9484 4.28619,5.0528c3.16761,1.77025 5.67532,-0.51498 5.71131,-3.63357c-0.12718,-0.50789 -0.25147,-1.01652 -0.37448,-1.52545l-0.32362,-0.26081c0,0 -0.48362,-0.57325 0.08963,-1.05687z" fill="#002658" stroke="none" stroke-width="0.5" stroke-linecap="butt"/><path d="M218.99475,203.10216c-0.0298,-0.74942 0.71959,-0.77922 0.71959,-0.77922l0.60033,-0.02303c1.15574,0.00918 2.31037,0.19676 3.45229,0.05999c4.37481,-0.55643 15.10748,-0.44121 13.56,-6.84375c0,0 -0.08471,-0.35045 0.10633,-0.62411c-0.11946,0.02955 -0.244,0.0608 -0.37535,0.09255c0,0 -0.72901,0.1762 -0.90521,-0.55281c-0.1762,-0.72901 0.55281,-0.90521 0.55281,-0.90521c1.30764,-0.31606 2.19396,-0.49502 3.4987,-0.03195l0.37524,0.13734c0,0 0.70432,0.25777 0.44653,0.96208c-0.25777,0.70432 -0.96208,0.44653 -0.96208,0.44653l-0.37524,-0.13734c-0.46121,-0.17571 -0.83928,-0.22462 -1.21235,-0.20223c0.23776,0.16958 0.30863,0.46275 0.30863,0.46275c1.90837,7.89568 -9.4001,7.99384 -14.83899,8.68542c-1.21941,0.13172 -2.41476,-0.03984 -3.64308,-0.04932l-0.52897,0.02189c0,0 -0.74942,0.0298 -0.77922,-0.71959z" fill="#002658" stroke="none" stroke-width="0.5" stroke-linecap="butt"/><path d="M217.51243,177.9162c-0.50884,0.551 -1.05982,0.04216 -1.05982,0.04216l-0.0425,-0.11777c-2.05686,-0.88447 -3.50611,1.94224 -3.27886,3.66665c0,0 0.08441,0.74524 -0.66081,0.82965c-0.74524,0.08441 -0.82965,-0.66081 -0.82965,-0.66081c-0.29827,-2.98538 2.06221,-6.30921 5.28488,-5.24411l0.54462,0.42442c0,0 0.551,0.50884 0.04216,1.05982z" fill="#002658" stroke="none" stroke-width="0.5" stroke-linecap="butt"/><path d="M226.18931,176.70009c0.00587,-0.74998 0.75585,-0.74411 0.75585,-0.74411l0.48191,0.00419c2.20875,0.09254 4.42258,0.68556 5.35105,2.87393c0,0 0.27753,0.69676 -0.41924,0.97429c-0.69676,0.27753 -0.97429,-0.41924 -0.97429,-0.41924c-0.5756,-1.60762 -2.51361,-1.86944 -4.01923,-1.93026l-0.43195,-0.00296c0,0 -0.74998,-0.00587 -0.74411,-0.75585z" fill="#002658" stroke="none" stroke-width="0.5" stroke-linecap="butt"/></g></g></g></svg>