<svg version="1.1" xmlns="http://www.w3.org/2000/svg" xmlns:xlink="http://www.w3.org/1999/xlink" width="64.92768" height="73.83822" viewBox="0,0,64.92768,73.83822"><defs><linearGradient x1="238.38235" y1="193.5718" x2="238.38235" y2="219.5" gradientUnits="userSpaceOnUse" id="color-1"><stop offset="0" stop-color="#006dff"/><stop offset="1" stop-color="#0016ff"/></linearGradient><linearGradient x1="212.5" y1="206.5359" x2="264.26471" y2="206.5359" gradientUnits="userSpaceOnUse" id="color-2"><stop offset="0" stop-color="#ffd500"/><stop offset="1" stop-color="#ff8100"/></linearGradient><linearGradient x1="225.02969" y1="146.59875" x2="230.25414" y2="201.85488" gradientUnits="userSpaceOnUse" id="color-3"><stop offset="0" stop-color="#00c2ff"/><stop offset="1" stop-color="#009cff"/></linearGradient><linearGradient x1="201.28886" y1="176.71849" x2="253.99496" y2="171.73515" gradientUnits="userSpaceOnUse" id="color-4"><stop offset="0" stop-color="#2a48b5"/><stop offset="1" stop-color="#268bd9"/></linearGradient></defs><g transform="translate(-200.08703,-146.47501)"><g data-paper-data="{&quot;isPaintingLayer&quot;:true}" fill-rule="nonzero" stroke-linejoin="miter" stroke-miterlimit="10" stroke-dasharray="" stroke-dashoffset="0" style="mix-blend-mode: normal"><path d="M248.97059,195.19231l5.58824,16.20513l9.70588,1.21538v6.88718l-25,-2.02564v-7.29231l-26.17647,-5.67179l-0.58824,-10.93846z" fill="url(#color-1)" stroke="url(#color-2)" stroke-width="1.5" stroke-linecap="round"/><g><path d="M201.52714,157.36654l9.2937,-1.69259l-0.72456,-7.66326l7.61311,-0.71982l1.66566,14.49218l18.2306,-0.90982l19.00155,38.48997l-33.41867,2.75278l-13.95283,-0.71544l1.09631,-10.27704l-5.07859,-6.84466l-3.48787,-2.51877l6.28932,-2.22239l1.21071,-9.06705l-4.43031,0.01195l-1.32245,-10.8622z" fill="url(#color-3)" stroke="url(#color-4)" stroke-width="1.5" stroke-linecap="round"/><path d="M221.22155,178.13189c0.39399,0.32592 0.29717,0.69826 0.19564,0.90222c0.17904,1.77298 0.45446,3.85342 -0.88615,5.28427c-3.08675,3.2945 -7.10762,-3.13454 -7.65398,-5.55061c0,0 -0.16267,-0.73215 0.56948,-0.89481c0.73215,-0.16267 0.89481,0.56948 0.89481,0.56948c0.37148,1.70789 1.23328,3.2113 2.62344,4.30485c0.47979,0.37743 1.87093,1.28292 2.50271,0.51331c0.97292,-1.18517 0.55853,-2.99385 0.42942,-4.35944l0.26867,-0.66941c0,0 0.47806,-0.5779 1.05595,-0.09984z" fill="#002658" stroke="none" stroke-width="0.5" stroke-linecap="butt"/><path d="M238.51837,178.35911c0.63627,-0.39707 1.03334,0.23921 1.03334,0.23921l0.50398,0.95717c0.05503,0.58208 0.10825,1.16432 0.15951,1.74674c-0.63006,4.22357 -4.67676,6.86469 -8.55462,3.95228c-2.0588,-1.54623 -3.29615,-3.98406 -4.06548,-6.36118c0,0 -0.23089,-0.71358 0.48268,-0.94447c0.71358,-0.23089 0.94447,0.48268 0.94447,0.48268c0.67488,2.08616 1.72427,4.2371 3.52302,5.61165c2.88326,2.20326 5.69082,0.29841 6.17051,-2.78328c-0.05356,-0.52083 -0.10416,-1.04197 -0.15345,-1.56323l-0.28319,-0.30423c0,0 -0.39707,-0.63627 0.23921,-1.03334z" fill="#002658" stroke="none" stroke-width="0.5" stroke-linecap="butt"/><path d="M218.80838,196.6673c0.07721,-0.74602 0.82322,-0.66881 0.82322,-0.66881l0.59749,0.06269c1.14265,0.17365 2.25881,0.52374 3.40857,0.55097c4.40946,0.07219 15.01636,1.71451 14.39634,-4.84313c0,0 -0.03394,-0.35894 0.19412,-0.60261c-0.12245,0.01224 -0.25017,0.02544 -0.3847,0.03816c0,0 -0.74667,0.0706 -0.81727,-0.67607c-0.0706,-0.74667 0.67607,-0.81727 0.67607,-0.81727c1.33932,-0.12663 2.24209,-0.17757 3.4676,0.46658l0.35186,0.18938c0,0 0.66043,0.35544 0.30499,1.01586c-0.35544,0.66043 -1.01586,0.30499 -1.01586,0.30499l-0.35186,-0.18938c-0.43149,-0.23959 -0.79874,-0.34184 -1.1712,-0.3728c0.21119,0.20171 0.23959,0.50198 0.23959,0.50198c0.76462,8.08697 -10.44259,6.57385 -15.92454,6.48392c-1.22574,-0.04326 -2.38448,-0.38328 -3.59893,-0.56758l-0.5267,-0.05366c0,0 -0.74602,-0.07721 -0.66881,-0.82322z" fill="#002658" stroke="none" stroke-width="0.5" stroke-linecap="butt"/><path d="M220.92752,171.52692c-0.58211,0.47293 -1.05502,-0.10918 -1.05502,-0.10918l-0.0253,-0.12262c-1.90996,-1.16834 -3.74695,1.4232 -3.76756,3.1624c0,0 -0.02256,0.74966 -0.77221,0.7271c-0.74966,-0.02256 -0.7271,-0.77221 -0.7271,-0.77221c0.12987,-2.99743 2.9396,-5.95127 5.97776,-4.43813l0.47863,0.49764c0,0 0.47293,0.58211 -0.10918,1.05502z" fill="#002658" stroke="none" stroke-width="0.5" stroke-linecap="butt"/><path d="M229.68915,171.55874c0.1126,-0.7415 0.85411,-0.6289 0.85411,-0.6289l0.4764,0.07276c2.17306,0.40611 4.27989,1.30832 4.88729,3.60661c0,0 0.17549,0.72918 -0.55371,0.90467c-0.72918,0.17549 -0.90467,-0.55371 -0.90467,-0.55371c-0.34082,-1.6732 -2.2218,-2.20832 -3.70341,-2.48291l-0.42712,-0.06444c0,0 -0.7415,-0.1126 -0.6289,-0.85411z" fill="#002658" stroke="none" stroke-width="0.5" stroke-linecap="butt"/></g></g></g></svg>