<svg version="1.1" xmlns="http://www.w3.org/2000/svg" xmlns:xlink="http://www.w3.org/1999/xlink" width="59.32104" height="76.53756" viewBox="0,0,59.32104,76.53756"><defs><linearGradient x1="238.38235" y1="193.5718" x2="238.38235" y2="219.5" gradientUnits="userSpaceOnUse" id="color-1"><stop offset="0" stop-color="#006dff"/><stop offset="1" stop-color="#0016ff"/></linearGradient><linearGradient x1="212.5" y1="206.5359" x2="264.26471" y2="206.5359" gradientUnits="userSpaceOnUse" id="color-2"><stop offset="0" stop-color="#ffd500"/><stop offset="1" stop-color="#ff8100"/></linearGradient><linearGradient x1="231.57378" y1="144.09513" x2="235.17148" y2="199.48097" gradientUnits="userSpaceOnUse" id="color-3"><stop offset="0" stop-color="#00c2ff"/><stop offset="1" stop-color="#009cff"/></linearGradient><linearGradient x1="206.95771" y1="173.50389" x2="259.78754" y2="170.07223" gradientUnits="userSpaceOnUse" id="color-4"><stop offset="0" stop-color="#2a48b5"/><stop offset="1" stop-color="#268bd9"/></linearGradient></defs><g transform="translate(-205.69367,-143.77567)"><g data-paper-data="{&quot;isPaintingLayer&quot;:true}" fill-rule="nonzero" stroke-linejoin="miter" stroke-miterlimit="10" stroke-dasharray="" stroke-dashoffset="0" style="mix-blend-mode: normal"><path d="M248.97059,195.19231l5.58824,16.20513l9.70588,1.21538v6.88718l-25,-2.02564v-7.29231l-26.17647,-5.67179l-0.58824,-10.93846z" fill="url(#color-1)" stroke="url(#color-2)" stroke-width="1.5" stroke-linecap="round"/><g><path d="M207.76482,154.16731l9.33944,-1.41863l-0.49895,-7.68125l7.63098,-0.49569l1.23888,14.53488l18.24947,-0.37346l17.86176,39.03197l-33.48515,1.7691l-13.92577,-1.12533l1.39797,-10.24037l-4.87517,-6.99101l-3.41231,-2.62022l6.35194,-2.03653l1.47675,-9.02754l-4.42875,-0.1183l-1.00254,-10.89638z" fill="url(#color-3)" stroke="url(#color-4)" stroke-width="1.5" stroke-linecap="round"/><path d="M226.84023,175.50269c0.38424,0.33736 0.27651,0.70669 0.16903,0.90758c0.12684,1.77748 0.34098,3.86512 -1.04112,5.25593c-3.18227,3.20233 -7.01239,-3.34214 -7.48749,-5.77323c0,0 -0.14107,-0.73662 0.59554,-0.87768c0.73662,-0.14107 0.87768,0.59554 0.87768,0.59554c0.32111,1.71807 1.13834,3.24617 2.49575,4.38012c0.46849,0.39137 1.8324,1.33737 2.48654,0.58667c1.00734,-1.15605 0.64631,-2.97614 0.5574,-4.34493l0.28823,-0.66122c0,0 0.49484,-0.5636 1.05843,-0.06875z" fill="#002658" stroke="none" stroke-width="0.5" stroke-linecap="butt"/><path d="M244.1229,176.23832c0.64767,-0.37819 1.02586,0.26949 1.02586,0.26949l0.47562,0.97157c0.03789,0.58345 0.07397,1.167 0.10809,1.75067c-0.75396,4.20322 -4.87656,6.72423 -8.66712,3.69907c-2.01245,-1.60609 -3.1776,-4.07924 -3.87671,-6.47795c0,0 -0.20981,-0.72006 0.51024,-0.92987c0.72006,-0.20981 0.92987,0.51024 0.92987,0.51024c0.61326,2.1051 1.59896,4.28596 3.35652,5.7128c2.81724,2.28707 5.67959,0.46559 6.24967,-2.60067c-0.03822,-0.52218 -0.07348,-1.04458 -0.10743,-1.56707l-0.27412,-0.31242c0,0 -0.37819,-0.64767 0.26949,-1.02586z" fill="#002658" stroke="none" stroke-width="0.5" stroke-linecap="butt"/><path d="M223.88318,193.95914c0.09911,-0.74343 0.84253,-0.64432 0.84253,-0.64432l0.59539,0.08023c1.13705,0.20717 2.24244,0.58992 3.3909,0.65094c4.40543,0.20179 14.95946,2.15524 14.5325,-4.41779c0,0 -0.02337,-0.35978 0.21175,-0.59664c-0.12276,0.00863 -0.25081,0.01807 -0.38566,0.02683c0,0 -0.74842,0.04862 -0.79704,-0.6998c-0.04862,-0.74842 0.6998,-0.79704 0.6998,-0.79704c1.34246,-0.0872 2.24634,-0.11158 3.45238,0.56832l0.34614,0.19964c0,0 0.64969,0.3747 0.27499,1.02439c-0.3747,0.64969 -1.02439,0.27499 -1.02439,0.27499l-0.34614,-0.19964c-0.42426,-0.25217 -0.78834,-0.36517 -1.15973,-0.40707c0.20517,0.20783 0.22473,0.50881 0.22473,0.50881c0.52654,8.10595 -10.63134,6.264 -16.10828,6.01295c-1.22394,-0.07928 -2.37218,-0.45322 -3.58069,-0.67314l-0.52489,-0.06912c0,0 -0.74343,-0.09911 -0.64432,-0.84253z" fill="#002658" stroke="none" stroke-width="0.5" stroke-linecap="butt"/><path d="M226.74051,168.89193c-0.59576,0.45561 -1.05135,-0.14015 -1.05135,-0.14015l-0.02168,-0.12331c-1.87479,-1.22399 -3.78717,1.31243 -3.8589,3.05027c0,0 -0.04459,0.74867 -0.79325,0.70408c-0.74867,-0.04459 -0.70408,-0.79325 -0.70408,-0.79325c0.21794,-2.99232 3.11329,-5.86228 6.10565,-4.26047l0.46379,0.5115c0,0 0.45561,0.59576 -0.14015,1.05135z" fill="#002658" stroke="none" stroke-width="0.5" stroke-linecap="butt"/><path d="M235.49742,169.18132c0.13435,-0.73787 0.87223,-0.60352 0.87223,-0.60352l0.47405,0.08673c2.16018,0.46982 4.23958,1.43358 4.77915,3.74873c0,0 0.15398,0.73402 -0.58007,0.888c-0.73402,0.15398 -0.888,-0.58007 -0.888,-0.58007c-0.29148,-1.6825 -2.15592,-2.27268 -3.62881,-2.59071l-0.42504,-0.07697c0,0 -0.73787,-0.13435 -0.60352,-0.87223z" fill="#002658" stroke="none" stroke-width="0.5" stroke-linecap="butt"/></g></g></g></svg>