<svg version="1.1" xmlns="http://www.w3.org/2000/svg" xmlns:xlink="http://www.w3.org/1999/xlink" width="56.39075" height="78.29012" viewBox="0,0,56.39075,78.29012"><defs><linearGradient x1="238.38235" y1="193.5718" x2="238.38235" y2="219.5" gradientUnits="userSpaceOnUse" id="color-1"><stop offset="0" stop-color="#006dff"/><stop offset="1" stop-color="#0016ff"/></linearGradient><linearGradient x1="212.5" y1="206.5359" x2="264.26471" y2="206.5359" gradientUnits="userSpaceOnUse" id="color-2"><stop offset="0" stop-color="#ffd500"/><stop offset="1" stop-color="#ff8100"/></linearGradient><linearGradient x1="237.03886" y1="142.54563" x2="238.94308" y2="198.01552" gradientUnits="userSpaceOnUse" id="color-3"><stop offset="0" stop-color="#00c2ff"/><stop offset="1" stop-color="#009cff"/></linearGradient><linearGradient x1="211.53596" y1="171.18875" x2="264.44596" y2="169.37242" gradientUnits="userSpaceOnUse" id="color-4"><stop offset="0" stop-color="#2a48b5"/><stop offset="1" stop-color="#268bd9"/></linearGradient></defs><g transform="translate(-210.12661,-142.02311)"><g data-paper-data="{&quot;isPaintingLayer&quot;:true}" fill-rule="nonzero" stroke-linejoin="miter" stroke-miterlimit="10" stroke-dasharray="" stroke-dashoffset="0" style="mix-blend-mode: normal"><path d="M248.97059,195.19231l5.58824,16.20513l9.70588,1.21538v6.88718l-25,-2.02564v-7.29231l-26.17647,-5.67179l-0.58824,-10.93846z" fill="url(#color-1)" stroke="url(#color-2)" stroke-width="1.5" stroke-linecap="round"/><g><path d="M212.93334,151.88584l9.37842,-1.13269l-0.26409,-7.69291l7.64256,-0.26236l0.79432,14.56594l18.25236,0.18416l16.66116,39.55936l-33.52356,0.74545l-13.8849,-1.55018l1.71012,-10.19289l-4.65935,-7.13666l-3.33068,-2.72323l6.41118,-1.84155l1.75181,-8.97822l-4.42307,-0.25352l-0.66923,-10.92192z" fill="url(#color-3)" stroke="url(#color-4)" stroke-width="1.5" stroke-linecap="round"/><path d="M231.34815,173.79394c0.37376,0.34894 0.25479,0.71481 0.14123,0.91232c0.07249,1.78052 0.22276,3.87373 -1.20118,5.22168c-3.2786,3.10363 -6.90703,-3.55478 -7.30765,-5.99925c0,0 -0.1185,-0.74059 0.62207,-0.85908c0.74059,-0.1185 0.85908,0.62207 0.85908,0.62207c0.26848,1.72708 1.03865,3.27943 2.36079,4.45431c0.45632,0.4055 1.79069,1.39272 2.46746,0.66235c1.04218,-1.12474 0.73692,-2.95501 0.68986,-4.32588l0.30829,-0.65211c0,0 0.51182,-0.54822 1.06004,-0.03639z" fill="#002658" stroke="none" stroke-width="0.5" stroke-linecap="butt"/><path d="M248.60028,175.05714c0.65892,-0.35823 1.01715,0.3007 1.01715,0.3007l0.44572,0.98564c0.02005,0.58434 0.03829,1.16871 0.05456,1.75315c-0.882,4.17823 -5.07968,6.57213 -8.77607,3.4326c-1.96245,-1.66681 -3.05151,-4.1744 -3.67703,-6.59334c0,0 -0.18772,-0.72613 0.53841,-0.91385c0.72613,-0.18772 0.91385,0.53841 0.91385,0.53841c0.54867,2.12285 1.4673,4.3328 3.18045,5.81266c2.74607,2.37206 5.66272,0.63886 6.32619,-2.40856c-0.02225,-0.5231 -0.04154,-1.04634 -0.05951,-1.56962l-0.26445,-0.32065c0,0 -0.35823,-0.65892 0.3007,-1.01715z" fill="#002658" stroke="none" stroke-width="0.5" stroke-linecap="butt"/><path d="M227.82871,192.15145c0.12177,-0.74006 0.86182,-0.61828 0.86182,-0.61828l0.59266,0.09838c1.13019,0.24181 2.22337,0.65814 3.36943,0.75421c4.39721,0.33626 14.88665,2.61118 14.66066,-3.97182c0,0 -0.01237,-0.36033 0.22988,-0.58989c-0.12297,0.00488 -0.25124,0.0104 -0.3863,0.01504c0,0 -0.74956,0.02574 -0.77529,-0.72382c-0.02574,-0.74956 0.72382,-0.77529 0.72382,-0.77529c1.3445,-0.04615 2.2487,-0.04291 3.43341,0.67351l0.33988,0.21012c0,0 0.63794,0.39437 0.24357,1.03231c-0.39437,0.63794 -1.03231,0.24357 -1.03231,0.24357l-0.33988,-0.21012c-0.41636,-0.26501 -0.77682,-0.38908 -1.14675,-0.4423c0.19873,0.214 0.20908,0.51544 0.20908,0.51544c0.27869,8.11825 -10.81772,5.93633 -16.28443,5.5181c-1.22095,-0.11663 -2.35723,-0.52547 -3.55846,-0.7822l-0.52253,-0.08512c0,0 -0.74006,-0.12177 -0.61828,-0.86182z" fill="#002658" stroke="none" stroke-width="0.5" stroke-linecap="butt"/><path d="M231.4504,167.18322c-0.6094,0.4372 -1.04658,-0.1722 -1.04658,-0.1722l-0.0179,-0.12391c-1.83653,-1.28069 -3.82549,1.19614 -3.95027,2.93097c0,0 -0.06744,0.74696 -0.81439,0.67952c-0.74696,-0.06744 -0.67952,-0.81439 -0.67952,-0.81439c0.30924,-2.98427 3.2909,-5.76445 6.23294,-4.07198l0.44795,0.52543c0,0 0.4372,0.6094 -0.1722,1.04658z" fill="#002658" stroke="none" stroke-width="0.5" stroke-linecap="butt"/><path d="M240.19439,167.73996c0.15683,-0.73342 0.89026,-0.5766 0.89026,-0.5766l0.47118,0.10117c2.14482,0.53559 4.19381,1.56241 4.66241,3.89296c0,0 0.13149,0.73838 -0.60692,0.86987c-0.73838,0.13149 -0.86987,-0.60692 -0.86987,-0.60692c-0.23995,-1.69062 -2.08549,-2.33747 -3.54798,-2.70035l-0.42249,-0.08992c0,0 -0.73342,-0.15683 -0.5766,-0.89026z" fill="#002658" stroke="none" stroke-width="0.5" stroke-linecap="butt"/></g></g></g></svg>