<svg version="1.1" xmlns="http://www.w3.org/2000/svg" xmlns:xlink="http://www.w3.org/1999/xlink" width="56.88709" height="80.56324" viewBox="0,0,56.88709,80.56324"><defs><linearGradient x1="241.02943" y1="140.49999" x2="241.02943" y2="196.00256" gradientUnits="userSpaceOnUse" id="color-1"><stop offset="0" stop-color="#00c2ff"/><stop offset="1" stop-color="#009cff"/></linearGradient><linearGradient x1="214.55884" y1="168.25128" x2="267.50001" y2="168.25128" gradientUnits="userSpaceOnUse" id="color-2"><stop offset="0" stop-color="#2a48b5"/><stop offset="1" stop-color="#268bd9"/></linearGradient><linearGradient x1="238.38236" y1="193.5718" x2="238.38236" y2="219.5" gradientUnits="userSpaceOnUse" id="color-3"><stop offset="0" stop-color="#006dff"/><stop offset="1" stop-color="#0016ff"/></linearGradient><linearGradient x1="212.50001" y1="206.5359" x2="264.26472" y2="206.5359" gradientUnits="userSpaceOnUse" id="color-4"><stop offset="0" stop-color="#ffd500"/><stop offset="1" stop-color="#ff8100"/></linearGradient></defs><g transform="translate(-211.70665,-139.74999)"><g data-paper-data="{&quot;isPaintingLayer&quot;:true}" fill-rule="nonzero" stroke-linejoin="miter" stroke-miterlimit="10" stroke-dasharray="" stroke-dashoffset="0" style="mix-blend-mode: normal"><path d="M216.61766,149.00769l9.41176,-0.81026v-7.69744h7.64706l0.29412,14.58462l18.23529,0.81026l15.29412,40.10769l-33.52941,-0.40513l-13.82353,-2.02564l2.05882,-10.12821l-4.41176,-7.29231l-3.23529,-2.8359l6.47059,-1.62051l2.05882,-8.91282l-4.41176,-0.40513l-0.29412,-10.93846z" fill="url(#color-1)" stroke="url(#color-2)" stroke-width="1.5" stroke-linecap="round"/><path d="M248.9706,195.19231l5.58824,16.20513l9.70588,1.21538v6.88718l-25,-2.02564v-7.29231l-26.17647,-5.67179l-0.58824,-10.93846z" fill="url(#color-3)" stroke="url(#color-4)" stroke-width="1.5" stroke-linecap="round"/><path d="M237.46529,173.00589c-0.65767,-0.45295 -0.32883,-1.35884 -0.32883,-1.35884l0.21649,-0.35731c0,-1.02627 0.09997,-2.06011 0.00949,-3.07879c-0.02811,-0.31653 -0.10161,-0.63322 -0.21963,-0.90756c-0.21954,-0.51034 -0.51439,-0.95178 -0.78075,-1.41791c-0.10706,-0.18736 -0.17044,-0.48794 -0.33908,-0.54178c-0.99672,-0.31822 -2.14885,0.35851 -3.03693,0.85352c-0.382,0.21292 -0.85753,0.1927 -1.16465,0.57117c-0.29126,0.35893 -0.2762,1.01643 -0.48961,1.4674c-0.15142,0.31998 -0.43431,0.49254 -0.58824,0.81026c-0.534,1.10225 -1.07198,2.517 -1.36953,3.77936c0,0 -0.23252,0.96085 -0.93008,0.64056c-0.69756,-0.32028 -0.46504,-1.28113 -0.46504,-1.28113c0.36212,-1.46539 0.94773,-3.03291 1.57165,-4.32321c0.15372,-0.3179 0.43235,-0.49437 0.58824,-0.81026c0.27347,-0.55416 0.32027,-1.33316 0.68686,-1.77362c0.42866,-0.51505 1.04687,-0.61366 1.56616,-0.93344c0.74731,-0.46019 1.54286,-0.84949 2.35872,-0.94159c0.60361,-0.06814 1.23705,-0.18408 1.81641,0.059c0.37906,0.15904 0.6308,0.67107 0.89453,1.07843c1.42906,2.20735 1.36205,3.96964 1.36205,6.74958l-0.37174,1.2632c0,0 -0.32883,0.90589 -0.9865,0.45295z" fill="#002658" stroke="none" stroke-width="0.5" stroke-linecap="butt"/><path d="M250.14707,165.01026c0.73529,0 0.73529,1.01282 0.73529,1.01282v0.81026c-0.01052,0.638 0.09269,1.29922 -0.03155,1.91401c-0.10514,0.52027 -0.45735,0.88299 -0.63145,1.36687c-0.14825,0.41201 -0.15614,0.90961 -0.32917,1.30287c-0.16393,0.37259 -0.45089,0.61239 -0.65823,0.94139c-0.38217,0.60641 -0.61271,1.44148 -1.109,1.86281c-0.3444,0.29238 -0.80677,0.09243 -1.21119,0.10693c-1.46553,0.05253 -2.59925,-0.35749 -4.00186,-0.8405c0,0 -0.71334,-0.24565 -0.53501,-1.22823c0.17834,-0.98258 0.89168,-0.73694 0.89168,-0.73694c1.31168,0.45169 2.2942,0.71063 3.64519,0.78002c0.18618,0.00956 0.40542,0.26263 0.55352,0.10693c0.31698,-0.33325 0.40929,-0.94638 0.65571,-1.37822c0.7354,-1.28879 1.33127,-2.49457 1.29077,-4.19794v-0.81026c0,0 0,-1.01282 0.73529,-1.01282z" fill="#002658" stroke="none" stroke-width="0.5" stroke-linecap="butt"/><path d="M233.82354,175.74615c0,-0.55937 0.3292,-1.01282 0.73529,-1.01282c0.40609,0 0.73529,0.45346 0.73529,1.01282c0,0.55937 -0.3292,1.01282 -0.73529,1.01282c-0.40609,0 -0.73529,-0.45346 -0.73529,-1.01282z" fill="#002658" stroke="none" stroke-width="0.5" stroke-linecap="butt"/><path d="M249.70589,177.36667c0,-0.55937 0.3292,-1.01282 0.73529,-1.01282c0.40609,0 0.73529,0.45346 0.73529,1.01282c0,0.55937 -0.3292,1.01282 -0.73529,1.01282c-0.40609,0 -0.73529,-0.45346 -0.73529,-1.01282z" fill="#002658" stroke="none" stroke-width="0.5" stroke-linecap="butt"/><path d="M248.90229,183.9428c0.51993,0.71617 0,1.43234 0,1.43234l-0.7216,0.95564c-1.04358,0.50791 -2.13554,1.14217 -3.2379,1.35906c-1.53462,0.30194 -3.24364,0.00759 -4.79572,0.00759c-1.59102,0 -3.29934,0.081 -4.77404,-0.94172c-0.57652,-0.39982 -0.97782,-1.16865 -1.51618,-1.65915c0,0 -0.6118,-0.56181 -0.20393,-1.40453c0.40787,-0.84272 1.01967,-0.28091 1.01967,-0.28091c0.50652,0.46833 0.87833,1.2089 1.425,1.58187c1.22492,0.83572 2.73408,0.67879 4.04949,0.67879c1.49152,0 3.14285,0.29753 4.61604,0.00759c0.89605,-0.17635 1.78123,-0.70922 2.64445,-1.07171l0.45487,-0.66487c0,0 0.51993,-0.71617 1.03986,0z" fill="#002658" stroke="none" stroke-width="0.5" stroke-linecap="butt"/></g></g></svg>