<svg version="1.1" xmlns="http://www.w3.org/2000/svg" xmlns:xlink="http://www.w3.org/1999/xlink" width="56.88709" height="80.56324" viewBox="0,0,56.88709,80.56324"><defs><linearGradient x1="241.02942" y1="140.49999" x2="241.02942" y2="196.00256" gradientUnits="userSpaceOnUse" id="color-1"><stop offset="0" stop-color="#00c2ff"/><stop offset="1" stop-color="#009cff"/></linearGradient><linearGradient x1="214.55883" y1="168.25128" x2="267.5" y2="168.25128" gradientUnits="userSpaceOnUse" id="color-2"><stop offset="0" stop-color="#2a48b5"/><stop offset="1" stop-color="#268bd9"/></linearGradient><linearGradient x1="238.38235" y1="193.5718" x2="238.38235" y2="219.5" gradientUnits="userSpaceOnUse" id="color-3"><stop offset="0" stop-color="#006dff"/><stop offset="1" stop-color="#0016ff"/></linearGradient><linearGradient x1="212.5" y1="206.5359" x2="264.26471" y2="206.5359" gradientUnits="userSpaceOnUse" id="color-4"><stop offset="0" stop-color="#ffd500"/><stop offset="1" stop-color="#ff8100"/></linearGradient></defs><g transform="translate(-211.70665,-139.74999)"><g data-paper-data="{&quot;isPaintingLayer&quot;:true}" fill-rule="nonzero" stroke-linejoin="miter" stroke-miterlimit="10" stroke-dasharray="" stroke-dashoffset="0" style="mix-blend-mode: normal"><path d="M216.61765,149.00769l9.41176,-0.81026v-7.69744h7.64706l0.29412,14.58462l18.23529,0.81026l15.29412,40.10769l-33.52941,-0.40513l-13.82353,-2.02564l2.05882,-10.12821l-4.41176,-7.29231l-3.23529,-2.8359l6.47059,-1.62051l2.05882,-8.91282l-4.41176,-0.40513l-0.29412,-10.93846z" fill="url(#color-1)" stroke="url(#color-2)" stroke-width="1.5" stroke-linecap="round"/><path d="M248.97059,195.19231l5.58824,16.20513l9.70588,1.21538v6.88718l-25,-2.02564v-7.29231l-26.17647,-5.67179l-0.58824,-10.93846z" fill="url(#color-3)" stroke="url(#color-4)" stroke-width="1.5" stroke-linecap="round"/><path d="M233.82353,175.74615c0,-0.55937 0.3292,-1.01282 0.73529,-1.01282c0.40609,0 0.73529,0.45346 0.73529,1.01282c0,0.55937 -0.3292,1.01282 -0.73529,1.01282c-0.40609,0 -0.73529,-0.45346 -0.73529,-1.01282z" fill="#002658" stroke="none" stroke-width="0.5" stroke-linecap="butt"/><path d="M249.70588,177.36667c0,-0.55937 0.3292,-1.01282 0.73529,-1.01282c0.40609,0 0.73529,0.45346 0.73529,1.01282c0,0.55937 -0.3292,1.01282 -0.73529,1.01282c-0.40609,0 -0.73529,-0.45346 -0.73529,-1.01282z" fill="#002658" stroke="none" stroke-width="0.5" stroke-linecap="butt"/><path d="M248.90228,183.9428c0.51993,0.71617 0,1.43234 0,1.43234l-0.7216,0.95564c-1.04358,0.50791 -2.13554,1.14217 -3.2379,1.35906c-1.53462,0.30194 -3.24364,0.00759 -4.79572,0.00759c-1.59102,0 -3.29934,0.081 -4.77404,-0.94172c-0.57652,-0.39982 -0.97782,-1.16865 -1.51618,-1.65915c0,0 -0.6118,-0.56181 -0.20393,-1.40453c0.40787,-0.84272 1.01967,-0.28091 1.01967,-0.28091c0.50652,0.46833 0.87833,1.2089 1.425,1.58187c1.22492,0.83572 2.73408,0.67879 4.04949,0.67879c1.49152,0 3.14285,0.29753 4.61604,0.00759c0.89605,-0.17635 1.78123,-0.70922 2.64445,-1.07171l0.45487,-0.66487c0,0 0.51993,-0.71617 1.03986,0z" fill="#002658" stroke="none" stroke-width="0.5" stroke-linecap="butt"/><path d="M239.33651,166.94046c0.71151,0.23717 0.47434,0.94868 0.47434,0.94868l-0.24631,0.73892c-0.92367,2.7502 -4.76827,6.02016 -7.80029,3.57323c-0.8455,-0.68234 -1.68326,-2.24553 -2.36387,-3.09558c0,0 -0.46852,-0.58565 0.11713,-1.05417c0.58565,-0.46852 1.05417,0.11713 1.05417,0.11713c0.60528,0.7572 1.32899,2.16456 2.06963,2.81575c2.15135,1.89154 4.92247,-1.08238 5.5002,-2.83071l0.24631,-0.73892c0,0 0.23717,-0.71151 0.94868,-0.47434z" fill="#002658" stroke="none" stroke-width="0.5" stroke-linecap="butt"/><path d="M253.63136,170.12611c-0.75,0 -0.75,-0.75 -0.75,-0.75l0.00365,-0.91132c-0.1722,-0.84798 -0.28997,-2.34382 -0.83416,-3.06596c-2.34642,-3.1137 -5.91616,-0.49506 -6.82128,2.24401c0,0 -0.23717,0.71151 -0.94868,0.47434c-0.71151,-0.23717 -0.47434,-0.94868 -0.47434,-0.94868c1.28953,-3.83953 6.3689,-6.78329 9.43488,-2.6821c0.73479,0.98289 0.90641,2.66575 1.13628,3.83059l0.00365,1.05912c0,0 0,0.75 -0.75,0.75z" fill="#002658" stroke="none" stroke-width="0.5" stroke-linecap="butt"/></g></g></svg>