<?xml version="1.0" encoding="UTF-8"?>
<svg id="Layer_1" data-name="Layer 1" xmlns="http://www.w3.org/2000/svg" viewBox="0 0 24.7 20.12">
  <g style="opacity: .15;">
    <g id="Layer0_0_FILL" data-name="Layer0 0 FILL">
      <path d="M3.25,17.49c1.6,1.1,3.98.75,7.15-1.05,3.37-1.9,7.47-5.35,12.3-10.35-5.77-4.94-11.53-4.92-17.3.05-.67,1.93-1.67,4.22-3,6.85-.73,1.93-.45,3.43.85,4.5Z" style="fill: #fff;"/>
    </g>
  </g>
  <g style="opacity: .15;">
    <path id="Layer0_0_2_STROKES" data-name="Layer0 0 2 STROKES" d="M22.7,6.09c-4.83,5-8.93,8.45-12.3,10.35-3.17,1.8-5.55,2.15-7.15,1.05-1.3-1.07-1.58-2.57-.85-4.5,1.33-2.63,2.33-4.92,3-6.85" style="fill: none; stroke: #000; stroke-linecap: round; stroke-linejoin: round; stroke-width: 4px;"/>
  </g>
  <g id="Layer0_0_FILL-2" data-name="Layer0 0 FILL">
    <path d="M3.25,17.49c1.6,1.1,3.98.75,7.15-1.05,3.37-1.9,8.79-7.31,13.62-12.31C18.25-.81,11.78-1.62,6.02,3.35c-.67,1.93-2.29,7.01-3.62,9.64-.73,1.93-.45,3.43.85,4.5Z" style="fill: #fff;"/>
  </g>
</svg>